#!OML:ASF E:\motion texture\Top Level 1\Subject 1\Session 1\male.ASF
:FULLY-SPECIFIED
:DEGREES
417
root -29.4908 17.7542 4.29218 866.764 -84.2384 -862.321
lowerback -2.01785 2.12825 3.05319
upperback -0.289455 2.78136 -1.28414
thorax 1.04269 1.40456 -2.94418
lowerneck -12.6533 0.606436 -5.99794
upperneck 30.9715 2.68668 -3.69484
head 12.3493 -0.340464 -0.0664072
rclavicle -2.98177e-016 -1.59028e-015
rhumerus -28.2522 -48.1932 -46.4834
rradius 59.0977
rwrist -42.8444
rhand -14.7212 -49.3134
rfingers 7.12502
rthumb 11.4337 -78.9816
lclavicle -2.98177e-016 -1.59028e-015
lhumerus -40.4185 40.7379 51.8349
lradius 75.1576
lwrist 50.0991
lhand -13.3011 42.025
lfingers 7.12502
lthumb 12.8029 71.6124
rfemur -9.50035 0.0707353 23.6364
rtibia 56.8003
rfoot 11.2639 -7.82417
rtoes -0.709917
lfemur -22.7612 -4.40662 -15.0005
ltibia 22.3075
lfoot -1.13266 0.844963
ltoes 0.695091
418
root -29.6432 17.7664 4.30508 872.826 -84.2734 -868.554
lowerback -1.94113 2.06296 2.49171
upperback -0.285314 2.70795 -1.35567
thorax 0.975941 1.36438 -2.70851
lowerneck -12.6724 0.641416 -5.93386
upperneck 30.9263 2.70494 -3.64626
head 12.333 -0.317189 -0.0557995
rclavicle 3.32467e-014 -1.66979e-014
rhumerus -28.2278 -47.9864 -47.1724
rradius 59.5919
rwrist -42.6381
rhand -14.7527 -48.8884
rfingers 7.12502
rthumb 11.4033 -78.5583
lclavicle 3.32467e-014 -1.66979e-014
lhumerus -40.9722 40.6574 52.2098
lradius 75.3095
lwrist 49.642
lhand -13.2572 41.8118
lfingers 7.12502
lthumb 12.8453 71.3965
rfemur -10.7475 -0.236309 22.7819
rtibia 58.7533
rfoot 11.2829 -8.82941
rtoes -0.584335
lfemur -21.9281 -4.27489 -15.8032
ltibia 22.2715
lfoot -1.70504 0.884908
ltoes 0.568867
419
root -29.794 17.7802 4.31575 877.78 -84.2425 -873.686
lowerback -1.85757 1.98863 2.01305
upperback -0.275113 2.61958 -1.38515
thorax 0.913673 1.3174 -2.47642
lowerneck -12.6905 0.664299 -5.89707
upperneck 30.8759 2.71016 -3.58943
head 12.3143 -0.30144 -0.0391567
rclavicle -4.72114e-016 4.77083e-015
rhumerus -28.224 -47.7392 -47.8517
rradius 60.1843
rwrist -42.4009
rhand -14.6788 -48.3689
rfingers 7.12502
rthumb 11.4746 -78.0348
lclavicle -4.72114e-016 4.77083e-015
lhumerus -41.4512 40.6224 52.6677
lradius 75.4837
lwrist 49.1595
lhand -13.1927 41.5318
lfingers 7.12502
lthumb 12.9075 71.1126
rfemur -11.9759 -0.594595 22.0784
rtibia 60.5784
rfoot 10.7928 -9.95762
rtoes -0.239347
lfemur -21.0623 -4.1091 -16.4793
ltibia 22.1695
lfoot -2.24066 0.857675
ltoes 0.446058
420
root -29.944 17.7957 4.32466 881.211 -84.1545 -877.309
lowerback -1.7616 1.90892 1.66408
upperback -0.259014 2.52083 -1.36491
thorax 0.854669 1.26608 -2.26632
lowerneck -12.7152 0.674804 -5.88476
upperneck 30.8366 2.70154 -3.52285
head 12.3014 -0.294078 -0.0167161
rclavicle 1.63997e-015 5.56597e-015
rhumerus -28.2384 -47.4522 -48.5168
rradius 60.8429
rwrist -42.1426
rhand -14.5948 -47.8174
rfingers 7.12502
rthumb 11.5556 -77.4788
lclavicle 1.63997e-015 5.56597e-015
lhumerus -41.8575 40.6158 53.1942
lradius 75.6636
lwrist 48.7073
lhand -13.1251 41.229
lfingers 7.12502
lthumb 12.9726 70.8057
rfemur -13.1636 -0.996107 21.5644
rtibia 62.2335
rfoot 10.0368 -11.1199
rtoes 0.562706
lfemur -20.1535 -3.95329 -16.9811
ltibia 22.0043
lfoot -2.74432 0.823744
ltoes 0.331635
421
root -30.094 17.8127 4.33272 883.239 -84.0432 -879.544
lowerback -1.6629 1.82541 1.44315
upperback -0.23132 2.41426 -1.30317
thorax 0.810382 1.21179 -2.08515
lowerneck -12.746 0.673304 -5.8857
upperneck 30.8084 2.67964 -3.45603
head 12.2945 -0.294768 0.00607528
rclavicle 1.38404e-014 2.38542e-015
rhumerus -28.2774 -47.1161 -49.1555
rradius 61.5485
rwrist -41.8896
rhand -14.4873 -47.2874
rfingers 7.12502
rthumb 11.6592 -76.943
lclavicle 1.38404e-014 2.38542e-015
lhumerus -42.1807 40.6197 53.791
lradius 75.8342
lwrist 48.2997
lhand -13.0809 40.9411
lfingers 7.12502
lthumb 13.0153 70.5151
rfemur -14.2841 -1.43762 21.2121
rtibia 63.6732
rfoot 9.18372 -12.2579
rtoes 1.73838
lfemur -19.1886 -3.85971 -17.3355
ltibia 21.7657
lfoot -3.21341 0.833004
ltoes 0.248702
422
root -30.2437 17.8311 4.34036 884.067 -83.9164 -880.583
lowerback -1.56781 1.74026 1.34389
upperback -0.195691 2.30318 -1.20482
thorax 0.780372 1.15601 -1.93416
lowerneck -12.787 0.66315 -5.89074
upperneck 30.7926 2.64924 -3.39503
head 12.2951 -0.301191 0.026023
rclavicle -1.26477e-014 1.59028e-015
rhumerus -28.3178 -46.7587 -49.773
rradius 62.2624
rwrist -41.6246
rhand -14.3992 -46.8194
rfingers 7.12502
rthumb 11.7442 -76.4702
lclavicle -1.26477e-014 1.59028e-015
lhumerus -42.4187 40.6114 54.4534
lradius 75.9778
lwrist 47.9445
lhand -13.0799 40.6801
lfingers 7.12502
lthumb 13.0161 70.254
rfemur -15.3539 -1.8955 21.0045
rtibia 64.8958
rfoot 8.34875 -13.3431
rtoes 3.06694
lfemur -18.1838 -3.84907 -17.5557
ltibia 21.459
lfoot -3.64853 0.924319
ltoes 0.193252
